<svg width="80" height="24" viewBox="0 0 80 24" fill="none" xmlns="http://www.w3.org/2000/svg">
<path d="M5.67952 19.2968C7.42263 19.2968 8.75116 18.8116 9.66512 17.8411C10.5885 16.8612 11.0502 15.4384 11.0502 13.5728C11.0502 12.4233 10.7251 11.4481 10.075 10.6472C9.43427 9.84631 8.42609 9.15378 7.05045 8.5696C6.91854 8.4848 6.72067 8.37644 6.45685 8.24453C6.20245 8.1032 5.99987 7.98542 5.84912 7.8912C5.70778 7.79698 5.55232 7.68391 5.38272 7.552C5.21312 7.42009 5.09063 7.27404 5.01525 7.11387C4.93987 6.95369 4.90218 6.77467 4.90218 6.5768C4.90218 5.82302 5.5052 5.44613 6.71125 5.44613C7.21063 5.44613 7.73356 5.55449 8.28005 5.7712C8.83596 5.97849 9.29765 6.29884 9.66512 6.73227L10.3718 4.00453C10.3435 3.95742 10.2964 3.89618 10.2304 3.8208C10.1645 3.736 10.0043 3.59467 9.74992 3.3968C9.50494 3.18951 9.23169 3.01049 8.93018 2.85973C8.62867 2.70898 8.20938 2.57235 7.67232 2.44987C7.14467 2.31796 6.57934 2.252 5.97632 2.252C2.17916 2.252 0.280582 3.93387 0.280582 7.2976C0.280582 7.91947 0.374804 8.50364 0.563249 9.05013C0.751693 9.5872 0.968404 10.03 1.21338 10.3787C1.45836 10.7179 1.774 11.0476 2.16032 11.368C2.55605 11.6789 2.87169 11.9051 3.10725 12.0464C3.3428 12.1783 3.63018 12.3291 3.96938 12.4987C4.90218 12.9509 5.55703 13.3372 5.93392 13.6576C6.32023 13.978 6.51338 14.3643 6.51338 14.8165C6.51338 15.2405 6.34378 15.5326 6.00458 15.6928C5.6748 15.853 5.13303 15.9331 4.37925 15.9331C3.62547 15.9331 2.92352 15.7446 2.27338 15.3677C1.62325 14.9814 1.10503 14.5292 0.718716 14.0109L0.365382 17.4453C0.544404 17.6338 0.765827 17.8222 1.02965 18.0107C1.30289 18.1991 1.65152 18.397 2.07552 18.6043C2.49952 18.8116 3.02245 18.9764 3.64432 19.0989C4.2756 19.2308 4.954 19.2968 5.67952 19.2968ZM17.2966 19V10.7603C17.306 10.7508 17.3531 10.7084 17.4379 10.6331C17.5321 10.5577 17.5887 10.5106 17.6075 10.4917C17.6358 10.4729 17.6876 10.4352 17.763 10.3787C17.8478 10.3221 17.909 10.2844 17.9467 10.2656C17.9938 10.2468 18.0551 10.2185 18.1304 10.1808C18.2058 10.1431 18.2765 10.1196 18.3424 10.1101C18.4178 10.1007 18.4932 10.096 18.5686 10.096C19.3506 10.096 19.7275 10.5388 19.6992 11.4245V19H24.3632V11.8344C24.3632 11.7684 24.3679 11.6789 24.3774 11.5659C24.3774 11.4528 24.3774 11.368 24.3774 11.3115C24.3774 9.65316 24.1088 8.47067 23.5718 7.764C23.0441 7.05733 22.1349 6.704 20.844 6.704C20.4766 6.704 20.0997 6.77938 19.7134 6.93013C19.3365 7.07147 19.0114 7.24578 18.7382 7.45307C18.4649 7.65093 18.2152 7.85351 17.9891 8.0608C17.7724 8.26809 17.6075 8.44711 17.4944 8.59787L17.3248 8.80987V0.485333H16.4062L11.8694 1.192V2.5064L12.7174 3.0152V19H17.2966ZM32.0174 17.6008C31.1506 17.6008 30.7172 16.7104 30.7172 14.9296V10.3363C30.7172 9.73324 30.8302 9.26684 31.0564 8.93707C31.2825 8.60729 31.5981 8.4424 32.0033 8.4424C32.8701 8.4424 33.3036 9.36107 33.3036 11.1984V15.6645C33.3036 16.2676 33.1905 16.7434 32.9644 17.092C32.7476 17.4312 32.432 17.6008 32.0174 17.6008ZM31.9044 19.2968C34.1374 19.2968 35.7722 18.7786 36.8086 17.7421C37.8545 16.7057 38.3774 15.1039 38.3774 12.9368C38.3774 10.8451 37.8828 9.28569 36.8934 8.25867C35.9135 7.22222 34.3164 6.704 32.1022 6.704C29.8315 6.704 28.192 7.24578 27.1838 8.32933C26.1756 9.40347 25.6716 11.0052 25.6716 13.1347C25.6716 15.2829 26.1709 16.847 27.1697 17.8269C28.1684 18.8068 29.7467 19.2968 31.9044 19.2968ZM47.3653 19C48.1474 19 48.8399 18.8398 49.4429 18.5195C50.0554 18.1897 50.5548 17.7374 50.9411 17.1627C51.3274 16.5879 51.6195 15.9284 51.8173 15.184C52.0152 14.4302 52.1141 13.6105 52.1141 12.7248C52.1141 10.8404 51.7467 9.36578 51.0117 8.30107C50.2862 7.23636 49.1461 6.704 47.5915 6.704C46.9508 6.704 46.3901 6.82178 45.9096 7.05733C45.4291 7.29289 45.0192 7.58498 44.68 7.9336V6.98667H42.3197L39.2811 7.82053V9.3328L40.1291 9.85573V23.2683H44.68V18.4064C45.0192 18.576 45.4149 18.7173 45.8672 18.8304C46.3195 18.9435 46.8189 19 47.3653 19ZM45.2877 17.0355C45.1935 17.0355 45.0946 17.0308 44.9909 17.0213C44.8967 17.0119 44.7931 16.9931 44.68 16.9648V9.5024C45.0098 9.31396 45.3301 9.21973 45.6411 9.21973C46.0933 9.21973 46.4608 9.42702 46.7435 9.8416C47.0356 10.2562 47.1816 10.8875 47.1816 11.7355V14.1381C47.1816 16.0697 46.5503 17.0355 45.2877 17.0355ZM61.2 19C61.982 19 62.6746 18.8398 63.2776 18.5195C63.89 18.1897 64.3894 17.7374 64.7757 17.1627C65.162 16.5879 65.4541 15.9284 65.652 15.184C65.8499 14.4302 65.9488 13.6105 65.9488 12.7248C65.9488 10.8404 65.5813 9.36578 64.8464 8.30107C64.1209 7.23636 62.9808 6.704 61.4261 6.704C60.7854 6.704 60.2248 6.82178 59.7443 7.05733C59.2637 7.29289 58.8539 7.58498 58.5147 7.9336V6.98667H56.1544L53.1157 7.82053V9.3328L53.9637 9.85573V23.2683H58.5147V18.4064C58.8539 18.576 59.2496 18.7173 59.7019 18.8304C60.1541 18.9435 60.6535 19 61.2 19ZM59.1224 17.0355C59.0282 17.0355 58.9292 17.0308 58.8256 17.0213C58.7314 17.0119 58.6277 16.9931 58.5147 16.9648V9.5024C58.8444 9.31396 59.1648 9.21973 59.4757 9.21973C59.928 9.21973 60.2955 9.42702 60.5781 9.8416C60.8702 10.2562 61.0163 10.8875 61.0163 11.7355V14.1381C61.0163 16.0697 60.385 17.0355 59.1224 17.0355ZM73.5931 23.8619C75.4492 23.8619 76.8202 23.2965 77.7059 22.1659C78.5915 21.0352 79.0344 19.4287 79.0344 17.3464V6.98667H73.6496V8.612L74.4269 9.1208V15.7635C74.295 15.8765 74.1678 15.9708 74.0453 16.0461C73.9323 16.1215 73.8145 16.1828 73.692 16.2299C73.5695 16.2676 73.447 16.2864 73.3245 16.2864C72.9099 16.2864 72.632 16.1875 72.4907 15.9896C72.3587 15.7823 72.2928 15.462 72.2928 15.0285V6.98667H67.1483V8.612L67.6571 9.1208V14.1381C67.6571 16.0037 67.9444 17.3323 68.5192 18.1237C69.0939 18.9058 70.0833 19.2968 71.4872 19.2968C71.8547 19.2968 72.2127 19.2214 72.5613 19.0707C72.9194 18.9199 73.2209 18.7409 73.4659 18.5336C73.7108 18.3169 73.9275 18.1049 74.116 17.8976C74.3139 17.6809 74.4599 17.4972 74.5541 17.3464L74.6955 17.1203V18.3357C74.686 18.9011 74.6248 19.3769 74.5117 19.7632C74.3987 20.1495 74.2338 20.4463 74.0171 20.6536C73.8003 20.8703 73.5554 21.0211 73.2821 21.1059C73.0089 21.1907 72.6838 21.2331 72.3069 21.2331C71.1197 21.2331 70.2529 21.0776 69.7064 20.7667L68.9715 22.2931C69.3672 22.7736 69.9938 23.1552 70.8512 23.4379C71.7086 23.7205 72.6226 23.8619 73.5931 23.8619Z" fill="black"/>
</svg>
